# ProBuilder 4.5.2
# https://unity3d.com/unity/features/worldbuilding/probuilder
# 25.11.2022 16:35:34

mtllib ./Tetrahedr.mtl
o Tetrahedr

g Quad
v 0.01801208 0.1770013 -0.05342007
v 0.2446957 -0.1770013 -0.2083898
v 0.01863107 -0.1758609 0.212378
v -0.2446957 -0.1724464 -0.2123779

vt 1 1
vt 0 0
vt 0 1
vt 1 0
vt 0.1900603 -0.1990928
vt -0.03579416 0.1805787
vt -0.3096964 -0.1954189
vt 0.2463292 -0.2079908
vt 0.02026374 0.212778
vt -0.2430834 -0.211979

vn 0.8298796 0.3366236 0.4449545
vn 0.01123141 0.4070233 -0.9133487
vn -0.7885759 0.3691043 0.4918435
vn -0.009288447 -0.9999543 -0.002280037

usemtl Default-Material
f 3/3/1 2/2/1 1/1/1
f 2/2/2 4/4/2 1/1/2
f 3/5/3 1/6/3 4/7/3
f 2/8/4 3/9/4 4/10/4

usemtl WireFrameMat

